<svg width="1001" height="1000" viewBox="0 0 1001 1000" fill="none" xmlns="http://www.w3.org/2000/svg">
<g clip-path="url(#clip0_1_14)">
<rect width="1001" height="1000" fill="white"/>
<path d="M1 0H1001V1000H1V0Z" fill="#750787"/>
<path d="M1 0H1001V833H1V0Z" fill="#004DFF"/>
<path d="M1 0H1001V667H1V0Z" fill="#008026"/>
<path d="M1 0H1001V500H1V0Z" fill="#FFED00"/>
<path d="M1 0H1001V333H1V0Z" fill="#FF8C00"/>
<path d="M1 0H1001V167H1V0Z" fill="#E40303"/>
<path d="M0.737305 251.969L250.344 500L0.737305 748.031V251.969Z" fill="white"/>
<path d="M0.737305 251.969V125.984L373.703 500L0.737305 874.016V748.032L250.344 500L0.737305 251.969Z" fill="#FFAFC8"/>
<path d="M0.737305 125.984V0L502.837 500L0.737305 1000V874.016L373.703 500L0.737305 125.984Z" fill="#74D7EE"/>
<path d="M0.737305 0L502.837 500L0.737305 1000H126.984L626.722 500L126.984 0H0.737305Z" fill="#613915"/>
<path d="M126.984 0H252.969L752.706 500L252.969 1000H126.984L626.722 500L126.984 0Z" fill="black"/>
<path fill-rule="evenodd" clip-rule="evenodd" d="M582.304 821.879L658.821 777.576C678.964 810.471 705.143 834.635 751.457 834.635C790.395 834.635 815.225 815.167 815.225 788.316C815.225 756.095 789.719 744.683 746.757 725.894L723.27 715.817C655.469 686.959 610.493 650.711 610.493 574.186C610.493 503.703 664.192 450 748.103 450C807.846 450 850.806 470.811 881.681 525.184L808.513 572.17C792.402 543.308 774.954 531.898 748.105 531.898C720.583 531.898 703.129 549.351 703.129 572.17C703.129 600.364 720.583 611.778 760.854 629.232L784.346 639.3C864.227 673.537 909.203 708.438 909.203 786.973C909.203 871.557 842.749 917.87 753.473 917.87C666.21 917.87 609.823 876.254 582.305 821.879" fill="white"/>
<path fill-rule="evenodd" clip-rule="evenodd" d="M250.002 831.949L326.528 785.636C341.292 811.812 354.722 833.96 386.936 833.96C417.816 833.96 437.284 821.881 437.284 774.897V455.373H531.258V776.225C531.258 873.558 474.204 917.862 390.965 917.862C315.789 917.862 272.151 878.927 250 831.941" fill="white"/>
</g>
<defs>
<clipPath id="clip0_1_14">
<rect width="1001" height="1000" fill="white"/>
</clipPath>
</defs>
</svg>
